<svg width="30" height="30" viewBox="0 0 30 30" fill="none" xmlns="http://www.w3.org/2000/svg">
<path d="M11.3 26.925C12.4862 27.285 13.7075 27.5 15 27.5C21.8962 27.5 27.5 21.8962 27.5 15C27.5 8.10375 21.8962 2.5 15 2.5C8.10375 2.5 2.5 8.10375 2.5 15C2.5 20.3162 5.84 24.8775 10.5462 26.675C10.4387 25.7037 10.33 24.0875 10.5462 22.975L11.9837 16.7962C11.9837 16.7962 11.6237 16.0775 11.6237 14.9287C11.6237 13.2037 12.7012 11.9112 13.9225 11.9112C15 11.9112 15.5025 12.7012 15.5025 13.7075C15.5025 14.785 14.785 16.3287 14.425 17.8012C14.21 19.0225 15.0725 20.1012 16.3287 20.1012C18.5562 20.1012 20.28 17.73 20.28 14.3537C20.28 11.3725 18.125 9.325 15.0362 9.325C11.5162 9.325 9.4325 11.9462 9.4325 14.7125C9.4325 15.79 9.79125 16.8675 10.3662 17.5862C10.4737 17.6575 10.4737 17.7662 10.4387 17.945L10.0787 19.31C10.0787 19.5262 9.935 19.5975 9.72 19.4537C8.13875 18.735 7.205 16.4725 7.205 14.6412C7.205 10.69 10.0075 7.0975 15.395 7.0975C19.705 7.0975 23.045 10.1862 23.045 14.2812C23.045 18.5925 20.3875 22.04 16.58 22.04C15.3587 22.04 14.1737 21.3937 13.7787 20.6025L12.9162 23.585C12.6287 24.6625 11.8387 26.0987 11.3 26.9612V26.925Z" fill="black"/>
</svg>
