<svg width="30" height="30" viewBox="0 0 30 30" fill="none" xmlns="http://www.w3.org/2000/svg">
<path d="M28.41 6.68999C27.675 7.78499 26.745 8.75998 25.665 9.53999C25.68 9.76499 25.68 10.005 25.68 10.245C25.68 17.52 20.145 25.905 10.035 25.905C6.92997 25.905 4.03497 24.99 1.58997 23.43C2.02497 23.475 2.45997 23.505 2.90997 23.505C5.48997 23.505 7.85996 22.62 9.73497 21.15C8.58798 21.1263 7.47705 20.7449 6.55733 20.0591C5.63761 19.3734 4.95505 18.4175 4.60497 17.325C4.93497 17.385 5.27997 17.43 5.63997 17.43C6.13497 17.43 6.62997 17.355 7.07997 17.235C5.83587 16.9796 4.71789 16.303 3.91454 15.3193C3.1112 14.3356 2.67163 13.105 2.66997 11.835V11.775C3.41997 12.18 4.25997 12.435 5.15997 12.465C4.40667 11.9597 3.7895 11.2765 3.36305 10.476C2.9366 9.67539 2.71401 8.78206 2.71497 7.87498C2.71497 6.86999 2.98497 5.92499 3.46497 5.11499C6.17997 8.44499 10.23 10.635 14.805 10.86C14.715 10.455 14.655 10.035 14.655 9.59999C14.6589 8.14257 15.2407 6.7462 16.2726 5.71706C17.3046 4.68791 18.7025 4.10998 20.16 4.10999C21.75 4.10999 23.175 4.76999 24.18 5.84999C25.425 5.59499 26.61 5.14499 27.675 4.51499C27.255 5.78999 26.385 6.86999 25.245 7.54499C26.3379 7.42553 27.4056 7.13709 28.41 6.68999Z" fill="black"/>
</svg>
